<?xml version="1.0" standalone="no"?>
<!DOCTYPE svg PUBLIC "-//W3C//DTD SVG 20010904//EN"
 "http://www.w3.org/TR/2001/REC-SVG-20010904/DTD/svg10.dtd">
<svg version="1.0" xmlns="http://www.w3.org/2000/svg"
 width="150.000000pt" height="87.000000pt" viewBox="0 0 150.000000 87.000000"
 preserveAspectRatio="xMidYMid meet">

<g transform="translate(0.000000,87.000000) scale(0.100000,-0.100000)"
fill="#000000" stroke="none">
<path d="M30 540 l0 -300 75 0 75 0 0 120 0 120 568 2 567 3 0 140 0 140 -535
2 c-294 1 -549 2 -567 2 -28 1 -32 4 -35 34 l-3 32 -72 3 -73 3 0 -301z"/>
<path d="M1343 813 c-26 -5 -31 -38 -8 -47 13 -5 15 -42 15 -250 0 -207 -2
-245 -15 -250 -8 -3 -15 -15 -15 -26 0 -18 6 -20 65 -20 l65 0 0 134 c0 79 4
137 10 141 6 3 10 15 10 26 0 10 -4 19 -10 19 -6 0 -10 52 -10 135 l0 135 -29
0 c-16 0 -35 2 -43 4 -7 2 -23 1 -35 -1z"/>
<path d="M907 454 c-4 -4 -7 -45 -7 -91 l0 -83 210 0 211 0 -3 88 -3 87 -201
3 c-110 1 -203 -1 -207 -4z"/>
<path d="M790 320 l0 -40 40 0 40 0 0 40 0 40 -40 0 -40 0 0 -40z"/>
<path d="M1147 183 c-4 -3 -7 -13 -7 -22 0 -14 -24 -16 -210 -13 l-209 4 -7
-26 c-3 -14 -3 -37 0 -51 l6 -25 200 0 c120 0 217 -5 243 -12 34 -9 67 -8 150
2 l107 14 0 48 0 48 -45 0 c-38 0 -45 3 -45 20 0 18 -7 20 -88 20 -49 0 -92
-3 -95 -7z"/>
<path d="M93 153 c-8 -3 -13 -22 -12 -46 0 -32 2 -37 9 -22 7 18 8 16 11 -10
l4 -30 275 0 275 0 3 58 3 57 -278 -1 c-153 0 -284 -3 -290 -6z m4 -35 c-3 -8
-6 -5 -6 6 -1 11 2 17 5 13 3 -3 4 -12 1 -19z"/>
</g>
</svg>
